# xmcd
#
# Track frame offsets:
#	150
#	21590
#	40212
#	60297
#	78343
#	92674
#	110052
#	126633
#	142755
#	158263
#	175378
#	191270
#	210718
#	226564
#
# Disc length: 3130 seconds
#
# Revision: 0
# Processed by: cddbd v1.4PL0 Copyright (c) Steve Scherf et al.
# Submitted via: dBpowerAMP V4.0
#
DISCID=ae0c380e
DTITLE=Vários - Barretos 98
DYEAR=1900
DGENRE=Sertanejo
TTITLE0=Barra Mansa - Abertura
TTITLE1=Rio Negro e Solimões - Peão Apaixonado
TTITLE2=Leandro e Leonardo - Rumo a Goiânia
TTITLE3=João Paulo e Daniel - Mini-saia
TTITLE4=Cezar e Paulinho - Cowboy Moderno
TTITLE5=Rick e Renner - Tira a Roupa
TTITLE6=Tião Carreiro e Pardinho - Vento Lento (Veneno Lento)
TTITLE7=João Paulo e Daniel - Vai e Volta
TTITLE8=Leandro e Leonardo - Devolva a Passagem
TTITLE9=Milionário e José Rico - Jogo do Amor
TTITLE10=Guilherme e Santiago - Enrosca Enrosca
TTITLE11=João Paulo e Daniel - Fricote
TTITLE12=Leandro e Leonardo - Pimba Pimba
TTITLE13=Jayne - Oração de Rodei
EXTD=My name is Ricardo
EXTT0=
EXTT1=
EXTT2=
EXTT3=
EXTT4=
EXTT5=
EXTT6=
EXTT7=
EXTT8=
EXTT9=
EXTT10=
EXTT11=
EXTT12=
EXTT13=
PLAYORDER=
